HIERARCHY
ROOT hip
{
  OFFSET -0.367513 80.9791 219.358
  CHANNELS 6 Xposition Yposition Zposition Zrotation Xrotation Yrotation
  JOINT abdomen
  {
    OFFSET 0 20.6881 -0.73152
    CHANNELS 3 Zrotation Xrotation Yrotation
    JOINT chest
    {
      OFFSET 0 11.7043 -0.48768
      CHANNELS 3 Zrotation Xrotation Yrotation
      JOINT neck
      {
        OFFSET 0 22.1894 -2.19456
        CHANNELS 3 Zrotation Xrotation Yrotation
        JOINT head
        {
          OFFSET -0.24384 7.07133 1.2192
          CHANNELS 3 Zrotation Xrotation Yrotation
          JOINT leftEye
          {
            OFFSET 4.14528 8.04674 8.04672
            CHANNELS 3 Zrotation Xrotation Yrotation
            End Site
            {
              OFFSET 1 0 0
            }
          }
          JOINT rightEye
          {
            OFFSET -3.6576 8.04674 8.04672
            CHANNELS 3 Zrotation Xrotation Yrotation
            End Site
            {
              OFFSET 1 0 0
            }
          }
        }
      }
      JOINT rCollar
      {
        OFFSET -2.68224 19.2634 -4.8768
        CHANNELS 3 Zrotation Xrotation Yrotation
        JOINT rShldr
        {
          OFFSET -8.77824 -1.95073 1.46304
          CHANNELS 3 Zrotation Xrotation Yrotation
          JOINT rForeArm
          {
            OFFSET -28.1742 -1.7115 0.48768
            CHANNELS 3 Zrotation Xrotation Yrotation
            JOINT rHand
            {
              OFFSET -22.5879 0.773209 7.07136
              CHANNELS 3 Zrotation Xrotation Yrotation
              JOINT rThumb1
              {
                OFFSET -1.2192 -0.487915 3.41376
                CHANNELS 3 Zrotation Xrotation Yrotation
                JOINT rThumb2
                {
                  OFFSET -3.37035 -0.52449 3.41376
                  CHANNELS 3 Zrotation Xrotation Yrotation
                  End Site
                  {
                    OFFSET -1.78271 -1.18214 1.43049
                  }
                }
              }
              JOINT rIndex1
              {
                OFFSET -7.75947 0.938293 5.60832
                CHANNELS 3 Zrotation Xrotation Yrotation
                JOINT rIndex2
                {
                  OFFSET -2.54057 -0.884171 1.56538
                  CHANNELS 3 Zrotation Xrotation Yrotation
                  End Site
                  {
                    OFFSET -1.62519 -0.234802 1.16502
                  }
                }
              }
              JOINT rMid1
              {
                OFFSET -8.24714 1.18213 3.41376
                CHANNELS 3 Zrotation Xrotation Yrotation
                JOINT rMid2
                {
                  OFFSET -3.10165 -0.590103 1.0647
                  CHANNELS 3 Zrotation Xrotation Yrotation
                  End Site
                  {
                    OFFSET -2.48547 -0.328903 0.83742
                  }
                }
              }
              JOINT rRing1
              {
                OFFSET -8.82822 0.546677 1.51678
                CHANNELS 3 Zrotation Xrotation Yrotation
                JOINT rRing2
                {
                  OFFSET -2.60934 -0.819778 -0.0198488
                  CHANNELS 3 Zrotation Xrotation Yrotation
                  End Site
                  {
                    OFFSET -2.33842 -0.294052 0.168128
                  }
                }
              }
              JOINT rPinky1
              {
                OFFSET -8.27202 -0.0477905 -0.4584
                CHANNELS 3 Zrotation Xrotation Yrotation
                JOINT rPinky2
                {
                  OFFSET -1.82734 -0.647385 -0.700984
                  CHANNELS 3 Zrotation Xrotation Yrotation
                  End Site
                  {
                    OFFSET -1.69225 -0.51767 -0.607171
                  }
                }
              }
            }
          }
        }
      }
      JOINT lCollar
      {
        OFFSET 2.68224 19.2634 -4.8768
        CHANNELS 3 Zrotation Xrotation Yrotation
        JOINT lShldr
        {
          OFFSET 8.77824 -1.95073 1.46304
          CHANNELS 3 Zrotation Xrotation Yrotation
          JOINT lForeArm
          {
            OFFSET 28.1742 -1.7115 0.48768
            CHANNELS 3 Zrotation Xrotation Yrotation
            JOINT lHand
            {
              OFFSET 22.5879 0.773209 7.07136
              CHANNELS 3 Zrotation Xrotation Yrotation
              JOINT lThumb1
              {
                OFFSET 1.2192 -0.487915 3.41376
                CHANNELS 3 Zrotation Xrotation Yrotation
                JOINT lThumb2
                {
                  OFFSET 3.37035 -0.52449 3.41376
                  CHANNELS 3 Zrotation Xrotation Yrotation
                  End Site
                  {
                    OFFSET 1.78271 -1.18214 1.43049
                  }
                }
              }
              JOINT lIndex1
              {
                OFFSET 7.75947 0.938293 5.60832
                CHANNELS 3 Zrotation Xrotation Yrotation
                JOINT lIndex2
                {
                  OFFSET 2.54057 -0.884171 1.56538
                  CHANNELS 3 Zrotation Xrotation Yrotation
                  End Site
                  {
                    OFFSET 1.62519 -0.234802 1.16502
                  }
                }
              }
              JOINT lMid1
              {
                OFFSET 8.24714 1.18213 3.41376
                CHANNELS 3 Zrotation Xrotation Yrotation
                JOINT lMid2
                {
                  OFFSET 3.10165 -0.590103 1.0647
                  CHANNELS 3 Zrotation Xrotation Yrotation
                  End Site
                  {
                    OFFSET 2.48547 -0.328903 0.83742
                  }
                }
              }
              JOINT lRing1
              {
                OFFSET 8.82822 0.546677 1.51678
                CHANNELS 3 Zrotation Xrotation Yrotation
                JOINT lRing2
                {
                  OFFSET 2.60934 -0.819778 -0.0198488
                  CHANNELS 3 Zrotation Xrotation Yrotation
                  End Site
                  {
                    OFFSET 2.33842 -0.294052 0.168128
                  }
                }
              }
              JOINT lPinky1
              {
                OFFSET 8.27202 -0.0477905 -0.4584
                CHANNELS 3 Zrotation Xrotation Yrotation
                JOINT lPinky2
                {
                  OFFSET 1.82734 -0.647385 -0.700984
                  CHANNELS 3 Zrotation Xrotation Yrotation
                  End Site
                  {
                    OFFSET 1.69225 -0.51767 -0.607171
                  }
                }
              }
            }
          }
        }
      }
    }
  }
  JOINT rButtock
  {
    OFFSET -8.77824 4.35084 1.2192
    CHANNELS 3 Zrotation Xrotation Yrotation
    JOINT rThigh
    {
      OFFSET 0 -1.70687 -2.19456
      CHANNELS 3 Zrotation Xrotation Yrotation
      JOINT rShin
      {
        OFFSET 0 -36.8199 0.73152
        CHANNELS 3 Zrotation Xrotation Yrotation
        JOINT rFoot
        {
          OFFSET 0.73152 -45.1104 -5.12064
          CHANNELS 3 Zrotation Xrotation Yrotation
          End Site
          {
            OFFSET -1.1221 -3.69964 12.103
          }
        }
      }
    }
  }
  JOINT lButtock
  {
    OFFSET 8.77824 4.35084 1.2192
    CHANNELS 3 Zrotation Xrotation Yrotation
    JOINT lThigh
    {
      OFFSET 0 -1.70687 -2.19456
      CHANNELS 3 Zrotation Xrotation Yrotation
      JOINT lShin
      {
        OFFSET 0 -36.8199 0.73152
        CHANNELS 3 Zrotation Xrotation Yrotation
        JOINT lFoot
        {
          OFFSET -0.73152 -45.1104 -5.12064
          CHANNELS 3 Zrotation Xrotation Yrotation
          End Site
          {
            OFFSET 1.1221 -3.69964 12.103
          }
        }
      }
    }
  }
}
MOTION
Frames:	7
Frame Time:	0.00833333
3.7365 82.3525 39.5932 -0.0261982 -2.88062 2.78509 0.20704 12.1933 -3.06562 3.45769 -6.1835 -0.667613 -1.5298 -1.49558 -2.13191 -1.81891 3.53456 -3.71078 -0 0 0 -0 0 0 -2.12767e-014 1.07556e-014 -9.93737e-014 79.9742 -16.87 -4.76237 -8.60296 -3.33449 15.2067 -0.316777 15.8037 2.27985 7.87062e-010 -3.8915e-010 2.90405e-010 1.36232e-009 -6.74307e-010 4.92195e-010 7.87065e-010 -3.89147e-010 2.90394e-010 7.73091 5.47488 0.417314 7.87062e-010 -3.89151e-010 2.90406e-010 2.90554 0.965183 0.102902 7.87066e-010 -3.89149e-010 2.90408e-010 10.2786 0.731801 0.0259123 7.87058e-010 -3.89148e-010 2.90418e-010 2.22167 -0.733487 -0.20892 -2.11529e-014 1.07637e-014 -9.95022e-014 -74.6227 24.6013 -2.97618 14.4059 -7.28561 -26.3766 0.0903236 -8.54202 1.20957 1.36432e-009 1.34141e-009 -2.29238e-010 2.36096e-009 2.32228e-009 -3.89206e-010 1.36432e-009 1.34142e-009 -2.29228e-010 -7.73091 5.47488 -0.417314 1.36432e-009 1.34141e-009 -2.29237e-010 -2.90554 0.965183 -0.102902 1.36432e-009 1.34141e-009 -2.29236e-010 -10.2786 0.731801 -0.0259123 1.36433e-009 1.34142e-009 -2.29244e-010 -2.22167 -0.733487 0.20892 -2.03217e-016 0 -3.88251e-019 5.10425 -28.1575 4.2692 -0.185186 28.5447 0.378082 -0.741983 2.51741 -5.75803 2.03217e-016 0 3.88251e-019 -0.898479 2.7571 -1.68632 0.302856 41.7742 -1.07829 0.67423 4.51969 -13.4604 
3.56623 82.3667 40.5951 -0.328089 -3.0291 2.54617 0.568133 12.3347 -2.86049 3.39206 -6.21152 -0.595529 -1.48007 -1.65424 -2.1492 -1.93237 3.61662 -3.7515 -0 0 0 -0 0 0 -1.38452e-014 -1.35214e-014 -8.94034e-014 79.9473 -16.8477 -4.81851 -8.60509 -3.33582 15.2104 -0.313815 15.7396 2.27003 6.74344e-010 -4.09942e-010 3.35822e-010 1.16794e-009 -7.10266e-010 5.71702e-010 6.74346e-010 -4.0994e-010 3.35813e-010 7.73091 5.47488 0.417314 6.74344e-010 -4.09944e-010 3.35825e-010 2.90554 0.965183 0.102902 6.74346e-010 -4.09942e-010 3.35827e-010 10.2786 0.731801 0.0259123 6.7434e-010 -4.0994e-010 3.35838e-010 2.22167 -0.733487 -0.20892 -1.36875e-014 -1.35123e-014 -8.95028e-014 -75.0025 24.1097 -2.544 14.2956 -7.19547 -26.1507 0.0858927 -8.33123 1.17928 1.29178e-009 1.21738e-009 -2.82983e-010 2.23594e-009 2.10827e-009 -4.82623e-010 1.29177e-009 1.21738e-009 -2.82974e-010 -7.73091 5.47488 -0.417314 1.29178e-009 1.21738e-009 -2.82983e-010 -2.90554 0.965183 -0.102902 1.29177e-009 1.21738e-009 -2.82981e-010 -10.2786 0.731801 -0.0259123 1.29178e-009 1.21738e-009 -2.8299e-010 -2.22167 -0.733487 0.20892 -2.03217e-016 0 -3.88251e-019 5.62374 -27.7042 4.14925 -0.192867 29.1588 0.364174 -0.740704 2.27914 -5.32498 2.03217e-016 0 3.88251e-019 -0.339072 1.58462 -1.29022 0.352535 43.8685 -1.12573 1.46293 7.61598 -15.3344 
3.45755 82.4049 41.6186 -0.783951 -3.16286 2.35416 1.12595 12.4775 -2.6802 3.31136 -6.37047 -0.517953 -1.42379 -1.65627 -2.16693 -2.06249 3.69075 -3.79803 -0 0 0 -0 0 0 2.10683e-014 -2.665e-014 -6.93374e-014 79.8842 -16.7457 -4.94432 -8.60664 -3.33666 15.2133 -0.310037 15.6489 2.25625 2.58576e-010 -4.38803e-010 2.38889e-010 4.48448e-010 -7.59691e-010 4.0923e-010 2.58577e-010 -4.38803e-010 2.38879e-010 7.73091 5.47488 0.417314 2.58575e-010 -4.38805e-010 2.38893e-010 2.90554 0.965183 0.102902 2.58575e-010 -4.38804e-010 2.38895e-010 10.2786 0.731801 0.0259123 2.5857e-010 -4.388e-010 2.38907e-010 2.22167 -0.733487 -0.20892 2.12e-014 -2.66422e-014 -6.94228e-014 -75.3401 23.8215 -2.09689 14.1441 -7.07203 -25.8433 0.0833564 -8.20155 1.16069 8.91461e-010 8.41568e-010 -3.47987e-010 1.54484e-009 1.45937e-009 -5.97119e-010 8.91454e-010 8.4157e-010 -3.47978e-010 -7.73091 5.47488 -0.417314 8.91463e-010 8.41565e-010 -3.47988e-010 -2.90554 0.965183 -0.102902 8.91456e-010 8.41565e-010 -3.47986e-010 -10.2786 0.731801 -0.0259123 8.91464e-010 8.41567e-010 -3.47995e-010 -2.22167 -0.733487 0.20892 -2.03217e-016 0 -3.88251e-019 6.30779 -27.158 4.15056 -0.198627 29.5256 0.336582 -0.746484 1.98817 -5.08253 2.03217e-016 0 3.88251e-019 0.349957 0.303328 -1.07196 0.403297 45.955 -1.18877 2.59887 11.1669 -17.4246 
3.29925 82.479 42.6638 -1.33174 -3.28372 2.19392 1.79811 12.6247 -2.51591 3.22854 -6.61541 -0.436328 -1.36278 -1.55987 -2.18667 -2.2062 3.75474 -3.85174 -0 0 0 -0 0 0 7.38654e-014 -3.51624e-014 -4.06111e-014 79.8012 -16.5259 -5.10934 -8.61679 -3.34221 15.232 -0.303683 15.4935 2.23269 -3.74553e-010 -4.54742e-010 5.07519e-011 -6.47547e-010 -7.86383e-010 9.19676e-011 -3.74554e-010 -4.54743e-010 5.07414e-011 7.73091 5.47488 0.417314 -3.74554e-010 -4.54744e-010 5.07571e-011 2.90554 0.965183 0.102902 -3.74556e-010 -4.54743e-010 5.07583e-011 10.2786 0.731801 0.0259123 -3.74561e-010 -4.54739e-010 5.07712e-011 2.22167 -0.733487 -0.20892 7.39328e-014 -3.51575e-014 -4.06918e-014 -75.6532 23.6611 -1.63524 13.9714 -6.93227 -25.4949 0.0822158 -8.14515 1.1526 2.45772e-010 2.63531e-010 -4.13635e-010 4.298e-010 4.60933e-010 -7.13934e-010 2.45764e-010 2.63533e-010 -4.13625e-010 -7.73091 5.47488 -0.417314 2.45773e-010 2.63529e-010 -4.13635e-010 -2.90554 0.965183 -0.102902 2.45766e-010 2.63528e-010 -4.13634e-010 -10.2786 0.731801 -0.0259123 2.45774e-010 2.63528e-010 -4.13644e-010 -2.22167 -0.733487 0.20892 -2.03217e-016 0 -3.88251e-019 7.08577 -26.5388 4.21458 -0.203159 29.7195 0.299796 -0.763168 1.60781 -4.99067 2.03217e-016 0 3.88251e-019 1.11774 -1.08862 -0.956263 0.458694 48.0356 -1.2666 4.15522 15.0473 -19.7859 
3.01814 82.5186 43.6011 -1.913 -3.38745 2.03509 2.50946 12.765 -2.3419 3.13451 -6.86608 -0.350549 -1.3087 -1.43081 -2.20851 -2.31942 3.78675 -3.90946 -0 0 0 -0 0 0 1.20467e-013 -3.9115e-014 -1.17807e-014 79.7239 -16.2758 -5.23209 -8.62517 -3.3468 15.2474 -0.297499 15.339 2.20931 -9.4482e-010 -4.4196e-010 -1.67205e-010 -1.63524e-009 -7.63357e-010 -2.77607e-010 -9.44822e-010 -4.41961e-010 -1.67217e-010 7.73091 5.47488 0.417314 -9.44821e-010 -4.41961e-010 -1.67199e-010 2.90554 0.965183 0.102902 -9.44824e-010 -4.41961e-010 -1.67198e-010 10.2786 0.731801 0.0259123 -9.4483e-010 -4.41955e-010 -1.67185e-010 2.22167 -0.733487 -0.20892 1.20463e-013 -3.91134e-014 -1.18661e-014 -75.9355 23.5561 -1.20804 13.7923 -6.78857 -25.1361 0.0813692 -8.10704 1.14712 -3.74192e-010 -2.69073e-010 -4.33768e-010 -6.41138e-010 -4.59282e-010 -7.51901e-010 -3.742e-010 -2.69073e-010 -4.33758e-010 -7.73091 5.47488 -0.417314 -3.74191e-010 -2.69076e-010 -4.33768e-010 -2.90554 0.965183 -0.102902 -3.74199e-010 -2.69077e-010 -4.33768e-010 -10.2786 0.731801 -0.0259123 -3.74191e-010 -2.69078e-010 -4.3378e-010 -2.22167 -0.733487 0.20892 -2.03217e-016 0 -3.88251e-019 7.8887 -25.8782 4.30682 -0.206382 29.807 0.261749 -0.786559 1.18178 -4.9702 2.03217e-016 0 3.88251e-019 1.90419 -2.52897 -0.87188 0.523317 50.0969 -1.35082 5.80844 18.4358 -21.9643 
2.76167 82.5437 44.4241 -2.4695 -3.46982 1.84731 3.18472 12.887 -2.13243 3.01971 -7.04219 -0.260549 -1.27333 -1.33489 -2.23251 -2.35818 3.76495 -3.96804 -0 0 0 -0 0 0 1.36794e-013 -3.85642e-014 8.59744e-015 79.6757 -16.0822 -5.23164 -8.62144 -3.34477 15.2405 -0.294032 15.2507 2.19598 -1.172e-009 -3.84655e-010 -3.53598e-010 -2.02982e-009 -6.63632e-010 -5.97016e-010 -1.172e-009 -3.84657e-010 -3.53611e-010 7.73091 5.47488 0.417314 -1.172e-009 -3.84656e-010 -3.53592e-010 2.90554 0.965183 0.102902 -1.17201e-009 -3.84656e-010 -3.53592e-010 10.2786 0.731801 0.0259123 -1.17201e-009 -3.8465e-010 -3.53579e-010 2.22167 -0.733487 -0.20892 1.36742e-013 -3.8565e-014 8.49804e-015 -76.1784 23.4344 -0.865172 13.6224 -6.65375 -24.7974 0.0797876 -8.03223 1.13639 -6.97333e-010 -5.08591e-010 -3.6223e-010 -1.19992e-009 -8.7352e-010 -6.29848e-010 -6.9734e-010 -5.08591e-010 -3.62221e-010 -7.73091 5.47488 -0.417314 -6.97332e-010 -5.08593e-010 -3.6223e-010 -2.90554 0.965183 -0.102902 -6.9734e-010 -5.08596e-010 -3.62231e-010 -10.2786 0.731801 -0.0259123 -6.97331e-010 -5.08597e-010 -3.62243e-010 -2.22167 -0.733487 0.20892 -2.03217e-016 0 -3.88251e-019 8.64936 -25.2083 4.39349 -0.208142 29.8545 0.230345 -0.810859 0.753633 -4.9419 2.03217e-016 0 3.88251e-019 2.65556 -3.95559 -0.7474 0.599624 52.1257 -1.4314 6.99126 20.6108 -23.3663 
2.51346 82.5705 45.2711 -3.03507 -3.5202 1.61603 3.8648 12.9818 -1.8729 2.86666 -7.11733 -0.162732 -1.26982 -1.27029 -2.25934 -2.27971 3.64607 -4.02672 -0 0 0 -0 0 0 1.02168e-013 -3.10688e-014 1.74562e-014 79.6632 -15.9613 -5.08094 -8.6017 -3.33397 15.2042 -0.293151 15.2261 2.19229 -8.20989e-010 -2.42772e-010 -5.10354e-010 -1.42509e-009 -4.18094e-010 -8.72671e-010 -8.20987e-010 -2.42775e-010 -5.10367e-010 7.73091 5.47488 0.417314 -8.2099e-010 -2.42773e-010 -5.10347e-010 2.90554 0.965183 0.102902 -8.20989e-010 -2.42773e-010 -5.10348e-010 10.2786 0.731801 0.0259123 -8.20999e-010 -2.42768e-010 -5.10337e-010 2.22167 -0.733487 -0.20892 1.02103e-013 -3.1071e-014 1.73277e-014 -76.3652 23.2938 -0.637874 13.4633 -6.5293 -24.4804 0.0772429 -7.90555 1.11823 -5.14578e-010 -2.50189e-010 -1.16768e-010 -8.85811e-010 -4.28176e-010 -2.04527e-010 -5.14584e-010 -2.50188e-010 -1.16759e-010 -7.73091 5.47488 -0.417314 -5.14578e-010 -2.50191e-010 -1.1677e-010 -2.90554 0.965183 -0.102902 -5.14585e-010 -2.50193e-010 -1.1677e-010 -10.2786 0.731801 -0.0259123 -5.14576e-010 -2.50194e-010 -1.16782e-010 -2.22167 -0.733487 0.20892 -2.03217e-016 0 -3.88251e-019 9.40271 -24.5262 4.4686 -0.208078 29.8396 0.205927 -0.833025 0.346647 -4.89487 2.03217e-016 0 3.88251e-019 3.41543 -5.38277 -0.572585 0.68835 54.1823 -1.50576 7.29399 21.2984 -23.6875 
